<?xml version="1.0" encoding="utf-8"?>
<!-- Generator: Adobe Illustrator 21.0.2, SVG Export Plug-In . SVG Version: 6.00 Build 0)  -->
<svg version="1.1" id="Layer_1" xmlns="http://www.w3.org/2000/svg" xmlns:xlink="http://www.w3.org/1999/xlink" x="0px" y="0px"
	 viewBox="0 0 309.6 54" style="enable-background:new 0 0 309.6 54;" xml:space="preserve">
<style type="text/css">
	.st0{fill:#F9F9F9;}
	.st1{fill:#FFFFFF;}
</style>
<g>
	<g>
		<path class="st0" d="M26.5,4.5C14.1,4.5,4,14.6,4,27s10.1,22.5,22.5,22.5S49,39.4,49,27S38.9,4.5,26.5,4.5z M37.9,39.3
			c-0.1,0-0.5,0.2-0.7,0.2c-0.5,0-1-0.3-1.2-0.7l-7.3-14.3l-4.2,8.2h2.3l-0.2-0.5c0-0.2,0-0.4,0.1-0.6c0.2-0.2,0.5-0.3,0.8-0.2
			l3.8,1.5c0.3,0.1,0.5,0.4,0.5,0.7s-0.2,0.6-0.5,0.7l-3.8,1.5c-0.3,0.1-0.6,0-0.8-0.2c-0.2-0.2-0.2-0.4-0.1-0.6l0.2-0.5h-3.2
			l-2.2,4.3c-0.2,0.4-0.7,0.7-1.2,0.7c-0.2,0-0.6-0.2-0.7-0.2l-0.3-0.1l0.5-1l1.9-3.7h-7.8c-0.4,0-0.6-0.1-0.8-0.4
			c-0.1-0.3-0.1-0.6,0-0.9l9.1-17.8l0.3,0.1c0.6,0.2,0.9,0.8,0.8,1.4c0,0.1-0.1,0.3-0.1,0.3l-7.9,15.4h7.3L27.9,22
			c0.2-0.2,0.5-0.4,0.8-0.4c0.4,0,0.6,0.1,0.8,0.4l8.6,17.2L37.9,39.3z M39.6,33.2c-0.1,0-0.5,0.2-0.7,0.2c-0.5,0-1-0.3-1.2-0.7
			l-9-17.6l-7.4,14.5c-0.2,0.4-0.7,0.7-1.2,0.7c-0.2,0-0.6-0.2-0.7-0.2L19.1,30l0.3-0.9l8.3-16.3c0.2-0.2,0.5-0.4,0.8-0.4
			c0.4,0,0.6,0.1,0.8,0.4l10.5,20.3L39.6,33.2z"/>
	</g>
	<g>
		<g>
			<g>
				<path class="st1" d="M70.4,13c-1,0-1.9,0.6-2.3,1.6L58,41h1.7c1.2,0,2.2-0.7,2.6-1.8l2.1-6h11.9l2.3,6.1
					c0.4,1.1,1.4,1.8,2.6,1.8h1.7L72.7,14.7C72.4,13.6,71.5,13,70.4,13z M65.5,30.2l4.4-11.9c0.2-0.5,0.3-1.1,0.4-1.9h0.1
					c0.1,0.9,0.3,1.5,0.4,1.9l4.4,11.9H65.5z"/>
				<path class="st1" d="M187.9,13.9l-6.1,11.8c-0.4,0.7-0.6,1.3-0.7,1.7H181c-0.4-1-0.6-1.6-0.7-1.7L174.5,14
					c-0.3-0.6-0.8-0.9-1.5-0.9h-2.7l8.8,17.4c0.1,0.2,0.2,0.5,0.2,0.7v8.2c0,0.9,0.7,1.6,1.6,1.6c0.9,0,1.6-0.7,1.6-1.6v-8.3
					c0-0.3,0.1-0.5,0.2-0.8l9-17.3h-2.5C188.8,13,188.2,13.3,187.9,13.9z"/>
				<path class="st1" d="M232.2,14.5l-5.3,20c-0.3,1.1-0.5,2-0.5,2.7h-0.1c-0.1-1-0.3-1.9-0.5-2.6l-5.5-20.1c-0.2-0.9-1.1-1.5-2-1.5
					c-0.9,0-1.7,0.6-2,1.5l-5.8,20c-0.3,1.2-0.5,2.1-0.6,2.8h-0.1c-0.1-1-0.2-1.9-0.5-2.8l-5.5-20c-0.2-0.9-1.1-1.5-2-1.5h-2
					l7.8,26.5c0.3,0.9,1.1,1.5,2,1.5h0.7c0.9,0,1.7-0.6,2-1.5l5.4-19c0.3-0.9,0.4-1.8,0.5-2.8h0.1c0.1,1,0.2,2,0.4,2.8l5.3,18.9
					c0.3,0.9,1.1,1.5,2,1.5h0.7c0.9,0,1.7-0.6,2-1.5l7.5-26.5h-2C233.2,13,232.4,13.6,232.2,14.5z"/>
				<path class="st1" d="M255.2,13c-1,0-1.9,0.6-2.3,1.6L242.8,41h1.8c1.1,0,2-0.7,2.4-1.7l2.2-6.1h11.9l2.3,6.2
					c0.4,1,1.3,1.7,2.4,1.7h1.9l-10.2-26.4C257.2,13.6,256.3,13,255.2,13z M250.3,30.2l4.4-11.9c0.2-0.5,0.3-1.1,0.4-1.9h0.1
					c0.1,0.9,0.3,1.5,0.4,1.9l4.4,11.9H250.3z"/>
				<path class="st1" d="M291.7,13c-0.6,0-1.2,0.3-1.5,0.9l-6.1,11.8c-0.4,0.7-0.6,1.3-0.7,1.7h-0.1c-0.4-1-0.6-1.6-0.7-1.7
					L276.8,14c-0.3-0.6-0.8-0.9-1.5-0.9h-2.7l8.8,17.4c0.1,0.2,0.2,0.5,0.2,0.7v8.2c0,0.9,0.7,1.6,1.6,1.6c0.9,0,1.6-0.7,1.6-1.6
					v-8.3c0-0.3,0.1-0.5,0.2-0.8l9-17.3L291.7,13L291.7,13z"/>
				<path class="st1" d="M133.3,38.1h-0.8l0,0h-9V14.7c0-0.9-0.7-1.6-1.6-1.6s-1.6,0.7-1.6,1.6V41h12.2l0,0h0.8
					c0.8,0,1.5-0.7,1.5-1.5S134.1,38.1,133.3,38.1z"/>
				<path class="st1" d="M160.8,38.1h-11.3V28h10.1c0.5,0,0.8-0.1,1.1-0.4c0.2-0.3,0.4-0.6,0.4-1s-0.1-0.7-0.4-1
					c-0.2-0.3-0.6-0.4-1.1-0.4h-10.1v-9.3h10.7c0.5,0,0.8-0.1,1.1-0.4c0.2-0.3,0.4-0.6,0.4-1s-0.1-0.7-0.4-1c-0.2-0.3-0.5-0.4-1-0.4
					h0.1h-0.2l0,0h-12.3l0,0h-1.7v1.7v24.6v1.7h1.8h12.8h0.3H161c0.4,0,0.7-0.2,0.9-0.4c0.2-0.3,0.4-0.6,0.4-1s-0.1-0.7-0.4-1
					C161.6,38.3,161.3,38.1,160.8,38.1z"/>
				<path class="st1" d="M107.3,38.1h-0.8l0,0h-9V14.7c0-0.9-0.7-1.6-1.6-1.6s-1.6,0.7-1.6,1.6V41h12.2l0,0h0.8
					c0.8,0,1.5-0.7,1.5-1.5C108.7,38.7,108.1,38.1,107.3,38.1z"/>
			</g>
		</g>
	</g>
</g>
</svg>
